# xmcd
#
# Track frame offsets:
#	150
#	15382
#	27817
#	38962
#	51882
#	65815
#	78210
#	94565
#	106750
#	117830
#	129422
#	140772
#	155505
#	168685
#	179134
#	190147
#	198727
#	211432
#
# Disc length: 2956 seconds
#
# Revision: 2
# Processed by: cddbd v1.5.2PL0 Copyright (c) Steve Scherf et al.
# Submitted via: ExactAudioCopy v0.95a5
#
DISCID=000b8a12
DTITLE=B. B. King - King of the Blues Guitar, (The)
DYEAR=1900
DGENRE=Blues
TTITLE0=My Own Fault Darlin'
TTITLE1=I Gotta Find My Baby
TTITLE2=B.B. Blues
TTITLE3=Walkin' and Cryin'
TTITLE4=She Don't Move Me No More
TTITLE5=Mistreated Woman
TTITLE6=The Ohter Night Blues
TTITLE7=Miss Martha King
TTITLE8=When Your Baby Packs Up and Goes
TTITLE9=Take A Swing With Me
TTITLE10=She's Dynamite
TTITLE11=B.B.'s Boogie
TTITLE12=Questionnaire Blues
TTITLE13=That Ain't the Way to Do It
TTITLE14=Everything I Do is Wrong
TTITLE15=A New Way of Driving
TTITLE16=Got the Blues
TTITLE17=Fine Looking Woman
EXTD=
EXTT0=
EXTT1=
EXTT2=
EXTT3=
EXTT4=
EXTT5=
EXTT6=
EXTT7=
EXTT8=
EXTT9=
EXTT10=
EXTT11=
EXTT12=
EXTT13=
EXTT14=
EXTT15=
EXTT16=
EXTT17=
PLAYORDER=
